<svg width="93" height="71" viewBox="0 0 93 71" fill="none" xmlns="http://www.w3.org/2000/svg">
<path d="M21.1738 13.4668C27.0856 13.4668 31.7909 15.151 35.2897 18.5194C38.7885 21.8877 40.5379 26.9403 40.5379 33.677C40.5379 38.3927 39.6934 42.3555 38.0043 45.5654C36.3152 48.7753 33.9224 51.2124 30.8257 52.8767C27.7291 54.5015 24.0895 55.3139 19.907 55.3139H2.17168V51.034L6.63568 49.7858V19.2327L2.17168 18.0438V13.764L15.8653 13.4668H21.1738ZM20.3293 49.1913C21.6162 49.1913 22.9031 49.013 24.1901 48.6564C25.477 48.2601 26.6432 47.5468 27.6889 46.5165C28.7747 45.4861 29.6394 43.9803 30.2828 41.9989C30.9263 40.0175 31.248 37.4021 31.248 34.1526C31.248 31.022 30.9464 28.5056 30.3431 26.6034C29.7399 24.6617 28.9356 23.1954 27.9302 22.2047C26.9248 21.1744 25.7987 20.4809 24.552 20.1243C23.3455 19.7676 22.139 19.5893 20.9325 19.5893H15.2621V49.1913H20.3293ZM90.2812 43.6633C90.2812 47.3487 88.8938 50.2217 86.1188 52.2823C83.3844 54.3033 79.3427 55.3139 73.9939 55.3139H55.9569V51.034L60.4209 49.7858V19.2327L55.9569 18.0438V13.764L68.6854 13.4668H74.8988C79.2421 13.4668 82.6203 14.299 85.033 15.9634C87.4862 17.6277 88.7128 20.2432 88.7128 23.8097C88.7128 29.1594 85.8172 32.5278 80.0263 33.9148C83.2034 34.2714 85.6966 35.2225 87.5063 36.768C89.3562 38.3135 90.2812 40.6119 90.2812 43.6633ZM73.2097 19.4704H69.0473V31.0616H71.8826C74.1749 31.0616 76.1053 30.6455 77.6737 29.8133C79.2421 28.9811 80.0263 27.3762 80.0263 24.9985C80.0263 22.8586 79.3628 21.4122 78.0356 20.6593C76.7487 19.8667 75.1401 19.4704 73.2097 19.4704ZM73.2097 49.2508C75.5824 49.2508 77.553 48.8149 79.1215 47.9431C80.6899 47.0713 81.4741 45.4465 81.4741 43.0688C81.4741 41.5234 81.1524 40.3147 80.5089 39.4429C79.8655 38.5314 79.041 37.8974 78.0356 37.5407C77.0302 37.1841 75.9243 37.0058 74.7178 37.0058H69.0473V49.2508H73.2097Z" fill="#2A2A2A"/>
<path d="M90.4865 29.7209H0V39.6279H90.4865V29.7209Z" fill="white"/>
<path d="M33.428 42.2162C32.2909 42.2162 31.4405 42.048 30.8768 41.7117C30.3131 41.3754 30.0312 40.8907 30.0312 40.2577C30.0312 39.4861 30.4832 38.8482 31.387 38.3437C30.9983 38.2547 30.8039 38.042 30.8039 37.7057C30.8039 37.6167 30.8185 37.5128 30.8476 37.3941C30.8865 37.2754 30.9594 37.0924 31.0663 36.8452C31.1732 36.5979 31.3336 36.2368 31.5474 35.7621C30.7505 35.2971 30.352 34.5454 30.352 33.5068C30.352 32.6364 30.629 31.9539 31.1829 31.4593C31.7466 30.9549 32.5193 30.7026 33.5009 30.7026C34.0841 30.7026 34.5992 30.7966 35.0463 30.9845L37.1747 30.8658L37.1893 31.5929L36.0522 31.8154C36.3924 32.221 36.5624 32.7452 36.5624 33.3881C36.5624 34.2586 36.2758 34.946 35.7023 35.4505C35.1289 35.9549 34.3708 36.2072 33.428 36.2072C32.9615 36.2072 32.5291 36.1428 32.1305 36.0143L31.8244 37.587H34.4048C35.3475 37.587 36.0571 37.7749 36.5333 38.1508C37.0193 38.5168 37.2622 39.046 37.2622 39.7384C37.2622 40.5396 36.9366 41.1529 36.2854 41.5782C35.644 42.0035 34.6915 42.2162 33.428 42.2162ZM33.4135 35.3763C34.0452 35.3763 34.5311 35.2081 34.8713 34.8718C35.2212 34.5256 35.3962 34.041 35.3962 33.4178C35.3962 32.8045 35.2309 32.3397 34.9005 32.0231C34.5701 31.6967 34.0987 31.5335 33.4864 31.5335C32.8644 31.5335 32.3833 31.7017 32.0431 32.038C31.7029 32.3743 31.5328 32.854 31.5328 33.4772C31.5328 34.0805 31.6932 34.5504 32.0139 34.8867C32.3443 35.2131 32.8109 35.3763 33.4135 35.3763ZM33.5301 41.3111C35.2698 41.3111 36.1397 40.8165 36.1397 39.8274C36.1397 38.947 35.4982 38.5069 34.2153 38.5069H32.116C31.4162 38.9916 31.0663 39.501 31.0663 40.0351C31.0663 40.8858 31.8876 41.3111 33.5301 41.3111ZM38.8207 38.6701V38.0321L39.9578 37.7799V31.7709L38.8207 31.5187V30.8807L40.8617 30.7768L41.0074 32.038C41.4059 31.6127 41.8044 31.2863 42.2029 31.0587C42.6111 30.8213 43.0484 30.7026 43.515 30.7026C43.8259 30.7026 44.1515 30.7521 44.4917 30.851L44.4043 33.0172H43.6753L43.5295 31.6967C43.4226 31.6769 43.306 31.667 43.1797 31.667C42.8103 31.667 42.4507 31.7759 42.1008 31.9935C41.7606 32.2012 41.435 32.4781 41.1241 32.8243V37.7799L42.5382 38.0321V38.6701H38.8207ZM50.6316 38.7443L50.4712 37.4535C50.0533 37.8986 49.6014 38.2349 49.1154 38.4624C48.6392 38.6899 48.1775 38.8036 47.7304 38.8036C47.1667 38.8036 46.6905 38.6206 46.3017 38.2547C45.913 37.8788 45.7186 37.3199 45.7186 36.5781C45.7186 36.0143 45.8352 35.5741 46.0685 35.2576C46.3114 34.9312 46.6467 34.7037 47.0744 34.5751C47.5021 34.4465 48.0025 34.3822 48.576 34.3822H50.3546V33.1211C50.3546 32.5869 50.2137 32.2012 49.9318 31.9638C49.6499 31.7264 49.2612 31.6077 48.7655 31.6077C48.2795 31.6077 47.7401 31.7066 47.1473 31.9044L47.0307 33.1062H46.2434L46.1268 31.2664C46.6808 31.0785 47.2007 30.94 47.6867 30.851C48.1727 30.7521 48.6246 30.7026 49.0425 30.7026C49.8103 30.7026 50.4129 30.8807 50.8502 31.2368C51.2973 31.583 51.5209 32.1418 51.5209 32.9134V37.7799L52.6726 38.0024V38.6553L50.6316 38.7443ZM46.8995 36.4891C46.8995 36.9737 47.0112 37.3298 47.2348 37.5573C47.468 37.7849 47.7596 37.8986 48.1095 37.8986C48.4399 37.8986 48.8044 37.7997 49.2029 37.6018C49.6014 37.404 49.9852 37.132 50.3546 36.7858V35.1686H48.7509C48.0609 35.1686 47.5798 35.2774 47.3076 35.495C47.0355 35.7027 46.8995 36.0341 46.8995 36.4891ZM57.9723 30.8807L61.0192 30.7768V31.4297L60.1591 31.6819L57.6953 38.6998H56.3249L54.0507 31.6967L53.2051 31.5187V30.8807L56.4124 30.7768V31.4297L55.2461 31.6522L57.0976 37.7651L59.1094 31.667L57.9723 31.5187V30.8807ZM62.1983 42.142L62.3003 41.2666C62.417 41.2864 62.5239 41.3012 62.6211 41.3111C62.728 41.321 62.8252 41.3259 62.9126 41.3259C63.3695 41.3259 63.7388 41.2221 64.0206 41.0144C64.3122 40.8165 64.5552 40.5149 64.7495 40.1093C64.9536 39.7137 65.1529 39.2191 65.3473 38.6256L62.7231 31.667L61.8921 31.5187V30.8807L65.0848 30.7768V31.4297L63.904 31.6374L65.8867 37.3941L67.811 31.667L66.6593 31.5187V30.8807L69.75 30.7768V31.4297L68.9044 31.6225L66.3678 38.6998C66.1345 39.3625 65.8867 39.956 65.6243 40.4802C65.3618 41.0144 65.0265 41.4348 64.6183 41.7414C64.2199 42.0579 63.6853 42.2162 63.0147 42.2162C62.7814 42.2162 62.5093 42.1915 62.1983 42.142Z" fill="#007BFF"/>
</svg>
